<svg width="63" height="63" viewBox="0 0 63 63" fill="none" xmlns="http://www.w3.org/2000/svg">
<circle cx="31.5" cy="31.5" r="31.5" fill="#44A442"/>
<path d="M29.4999 25.9999H32.4999V52.9999H29.4999V25.9999ZM23.9949 35.3299C22.8926 34.345 22.0106 33.1384 21.4067 31.7891C20.8029 30.4398 20.4907 28.9782 20.4907 27.4999C20.4907 26.0217 20.8029 24.56 21.4067 23.2107C22.0106 21.8614 22.8926 20.6548 23.9949 19.6699L26.0049 21.9049C25.2168 22.6085 24.5862 23.4706 24.1545 24.4348C23.7227 25.3989 23.4995 26.4435 23.4995 27.4999C23.4995 28.5564 23.7227 29.6009 24.1545 30.5651C24.5862 31.5293 25.2168 32.3914 26.0049 33.0949L23.9949 35.3299ZM38.0049 35.3299L35.9949 33.0949C36.783 32.3914 37.4136 31.5293 37.8454 30.5651C38.2771 29.6009 38.5003 28.5564 38.5003 27.4999C38.5003 26.4435 38.2771 25.3989 37.8454 24.4348C37.4136 23.4706 36.783 22.6085 35.9949 21.9049L38.0049 19.6699C39.1073 20.6548 39.9893 21.8614 40.5931 23.2107C41.197 24.56 41.5091 26.0217 41.5091 27.4999C41.5091 28.9782 41.197 30.4398 40.5931 31.7891C39.9893 33.1384 39.1073 34.345 38.0049 35.3299Z" fill="white"/>
<path d="M19.6 40.7C17.5508 39.1631 15.8875 37.1702 14.742 34.8791C13.5964 32.588 13 30.0616 13 27.5C13 24.9385 13.5964 22.4121 14.742 20.121C15.8875 17.8299 17.5508 15.837 19.6 14.3L21.4 16.7C19.7234 17.9575 18.3625 19.5881 17.4252 21.4627C16.488 23.3372 16 25.4042 16 27.5C16 29.5959 16.488 31.6629 17.4252 33.5374C18.3625 35.412 19.7234 37.0426 21.4 38.3L19.6 40.7ZM42.4 40.7L40.6 38.3C42.2766 37.0426 43.6375 35.412 44.5748 33.5374C45.512 31.6629 46 29.5959 46 27.5C46 25.4042 45.512 23.3372 44.5748 21.4627C43.6375 19.5881 42.2766 17.9575 40.6 16.7L42.4 14.3C44.4492 15.837 46.1125 17.8299 47.258 20.121C48.4036 22.4121 49 24.9385 49 27.5C49 30.0616 48.4036 32.588 47.258 34.8791C46.1125 37.1702 44.4492 39.1631 42.4 40.7Z" fill="white"/>
</svg>
